<?xml version="1.0" encoding="UTF-8"?><svg id="Layer_2" xmlns="http://www.w3.org/2000/svg" viewBox="0 0 1539.26 455.18"><defs><style>.cls-1{fill:#3e51a3;}.cls-2{fill:#434344;}</style></defs><g id="Layer_1-2"><path class="cls-2" d="M532.31,271.43l88.6-246.49h62.74l88.94,246.49h-64.12l-14.48-44.47h-86.18l-14.13,44.47h-61.36ZM621.94,183.18h57.92l-18.62-59.64-9.65-34.82h-.69c-3.91,14.71-7.24,26.32-10,34.82l-18.96,59.64Z"/><path class="cls-2" d="M788.44,271.43V24.94h61.02v194.78h110.66v51.71h-171.68Z"/><path class="cls-2" d="M982.18,271.43V24.94h61.02v246.49h-61.02Z"/><path class="cls-2" d="M1183.15,276.95c-34.94,0-62.97-11.49-84.11-34.47-22.06-24.13-33.1-55.27-33.1-93.42s12.18-71.82,36.54-96.18c21.37-21.83,49.52-32.75,84.46-32.75,31.03,0,55.96,7.64,74.81,22.92,18.84,15.29,30.34,36.14,34.47,62.57h-59.29c-2.3-10.34-7.64-18.79-16.03-25.34-8.39-6.55-19.02-9.82-31.89-9.82-19.77,0-34.88,7.24-45.33,21.72-10.46,14.48-15.68,33.44-15.68,56.88s5.63,41.83,16.89,56.54c11.26,14.71,26.31,22.06,45.16,22.06,15.17,0,27.52-4.25,37.06-12.75,9.53-8.5,15-18.62,16.37-30.34v-.69h-46.19v-44.82h102.73v132.38h-42.75l-3.45-29.65h-.69c-15.17,23.44-38.5,35.16-69.98,35.16Z"/><path class="cls-2" d="M1328.29,271.43V24.94h61.36l73.08,123.76,16.89,31.37h.69c-.46-19.76-.69-32.52-.69-38.27V24.94h59.64v246.49h-61.36l-72.39-122.04-17.58-33.1h-.69c.46,21.15.69,34.59.69,40.33v114.8h-59.64Z"/><path class="cls-2" d="M605.54,434.38c-17.37,0-30.73-4.28-40.08-12.85-9.35-8.56-14.39-19.72-15.11-33.47h15.92c2.17,22.2,15.5,33.29,39.99,33.29,9.29,0,16.74-2.08,22.35-6.24,5.61-4.16,8.41-10.16,8.41-18,0-3.5-.66-6.57-1.99-9.23-1.33-2.65-2.93-4.82-4.8-6.51-1.87-1.69-4.68-3.26-8.41-4.7-3.74-1.45-7.21-2.59-10.4-3.44-3.2-.84-7.57-1.87-13.12-3.08-6.64-1.45-12.12-2.92-16.47-4.43-4.34-1.51-8.69-3.59-13.03-6.24-4.34-2.65-7.57-6.06-9.68-10.22-2.11-4.16-3.17-9.2-3.17-15.11,0-10.61,4.01-18.97,12.03-25.06,8.02-6.09,18.67-9.14,31.94-9.14,29.07,0,45.42,13.45,49.04,40.35h-15.38c-1.21-9.17-4.64-16.07-10.31-20.72-5.67-4.64-13.33-6.97-22.98-6.97-8.93,0-16.01,1.81-21.26,5.43-5.25,3.62-7.87,8.75-7.87,15.38,0,2.9.57,5.46,1.72,7.69,1.15,2.23,2.65,4.1,4.52,5.61,1.87,1.51,4.34,2.87,7.42,4.07,3.08,1.21,6.12,2.2,9.14,2.99,3.01.79,6.69,1.6,11.04,2.44,6.03,1.21,10.98,2.32,14.84,3.35,3.86,1.03,8.14,2.56,12.85,4.61,4.7,2.05,8.35,4.41,10.95,7.06,2.59,2.66,4.82,6.12,6.69,10.4,1.87,4.28,2.8,9.26,2.8,14.93,0,11.82-4.37,21.08-13.12,27.77-8.75,6.69-20.24,10.04-34.47,10.04Z"/><path class="cls-2" d="M775.54,415.57c-11.52,12.67-26.87,19-46.05,19s-34.53-6.33-46.05-19c-11.52-12.67-17.28-28.83-17.28-48.49s5.76-35.83,17.28-48.49c11.52-12.67,26.87-19,46.05-19s34.53,6.33,46.05,19c11.52,12.67,17.28,28.83,17.28,48.49s-5.76,35.83-17.28,48.49ZM695.11,405.43c8.2,9.89,19.66,14.84,34.38,14.84s26.18-4.95,34.38-14.84c8.2-9.89,12.3-22.68,12.3-38.36s-4.1-28.5-12.3-38.45c-8.2-9.95-19.66-14.93-34.38-14.93s-26.18,4.98-34.38,14.93c-8.2,9.95-12.3,22.77-12.3,38.45s4.1,28.47,12.3,38.36Z"/><path class="cls-2" d="M811.45,431.85v-129.37h16.29v114.36h67.85v15.02h-84.14Z"/><path class="cls-2" d="M954.76,433.84c-15.08,0-27.11-3.56-36.1-10.68-8.99-7.12-13.48-18.15-13.48-33.11v-87.58h16.28v85.95c0,20.99,11.28,31.48,33.84,31.48s32.75-10.49,32.75-31.48v-85.95h16.28v87.58c0,14.84-4.55,25.85-13.66,33.02-9.11,7.18-21.08,10.77-35.92,10.77Z"/><path class="cls-2" d="M1017.54,316.77v-14.29h102.41v14.29h-43.06v115.08h-16.28v-115.08h-43.06Z"/><path class="cls-2" d="M1135.7,431.85v-129.37h16.28v129.37h-16.28Z"/><path class="cls-2" d="M1280.36,415.57c-11.52,12.67-26.87,19-46.05,19s-34.53-6.33-46.05-19c-11.52-12.67-17.28-28.83-17.28-48.49s5.76-35.83,17.28-48.49c11.52-12.67,26.87-19,46.05-19s34.53,6.33,46.05,19c11.52,12.67,17.28,28.83,17.28,48.49s-5.76,35.83-17.28,48.49ZM1199.93,405.43c8.2,9.89,19.66,14.84,34.38,14.84s26.18-4.95,34.38-14.84c8.2-9.89,12.3-22.68,12.3-38.36s-4.1-28.5-12.3-38.45c-8.2-9.95-19.66-14.93-34.38-14.93s-26.18,4.98-34.38,14.93c-8.2,9.95-12.3,22.77-12.3,38.45s4.1,28.47,12.3,38.36Z"/><path class="cls-2" d="M1316.28,431.85v-129.37h17.19l58.99,89.93,9.41,16.65h.36v-106.58h15.2v129.37h-16.65l-59.35-90.11-9.59-16.1h-.36v106.21h-15.2Z"/><path class="cls-2" d="M1487.99,434.38c-17.37,0-30.73-4.28-40.08-12.85-9.35-8.56-14.39-19.72-15.11-33.47h15.92c2.17,22.2,15.5,33.29,39.99,33.29,9.29,0,16.74-2.08,22.35-6.24,5.61-4.16,8.41-10.16,8.41-18,0-3.5-.66-6.57-1.99-9.23-1.33-2.65-2.93-4.82-4.8-6.51-1.87-1.69-4.68-3.26-8.41-4.7-3.74-1.45-7.21-2.59-10.4-3.44-3.2-.84-7.57-1.87-13.12-3.08-6.64-1.45-12.12-2.92-16.47-4.43-4.34-1.51-8.69-3.59-13.03-6.24-4.34-2.65-7.57-6.06-9.68-10.22-2.11-4.16-3.17-9.2-3.17-15.11,0-10.61,4.01-18.97,12.03-25.06,8.02-6.09,18.67-9.14,31.94-9.14,29.07,0,45.42,13.45,49.04,40.35h-15.38c-1.21-9.17-4.64-16.07-10.31-20.72-5.67-4.64-13.33-6.97-22.98-6.97-8.93,0-16.01,1.81-21.26,5.43-5.25,3.62-7.87,8.75-7.87,15.38,0,2.9.57,5.46,1.72,7.69,1.15,2.23,2.65,4.1,4.52,5.61,1.87,1.51,4.34,2.87,7.42,4.07,3.08,1.21,6.12,2.2,9.14,2.99,3.01.79,6.69,1.6,11.04,2.44,6.03,1.21,10.98,2.32,14.84,3.35,3.86,1.03,8.14,2.56,12.85,4.61,4.7,2.05,8.35,4.41,10.95,7.06,2.59,2.66,4.82,6.12,6.69,10.4,1.87,4.28,2.8,9.26,2.8,14.93,0,11.82-4.37,21.08-13.12,27.77-8.75,6.69-20.24,10.04-34.47,10.04Z"/><path class="cls-1" d="M103.11,312.52l43.93,76.29c-2.94,24.48-17.63,46.31-40.89,57.7-34.02,16.65-75.25,4.65-95.09-27.35-19.76-31.88-12.44-73.99,17.06-96.99,22.07-17.21,50.25-20.27,74.99-9.64Z"/><path class="cls-1" d="M253.92,392.15c-9.11,26.53-26.9,48.88-51.19,63.03l-15.09-25.56-114.67-195.32c26.39-15.81,57.23-19.55,86.97-12.59,15.04,3.52,28.6,9.68,40.86,17.9h0l59.79,105.36c.79,15.82-1.32,31.59-6.67,47.18Z"/><polygon class="cls-1" points="470.38 453.32 340.12 453.5 143.06 113.26 208.64 0 470.38 453.32"/></g></svg>