<?xml version="1.0" encoding="UTF-8"?><svg id="Layer_2" xmlns="http://www.w3.org/2000/svg" viewBox="0 0 1609.75 545.51"><defs><style>.cls-1{fill:#fff;}.cls-2{fill:#9c9c9c;}</style></defs><g id="Layer_1-2"><path class="cls-2" d="M0,542.45l49.06-136.49h34.74l49.25,136.49h-35.51l-8.02-24.63h-47.72l-7.83,24.63H0ZM49.63,493.59h32.07l-10.31-33.02-5.35-19.28h-.38c-2.17,8.15-4.01,14.57-5.54,19.28l-10.5,33.02Z"/><path class="cls-2" d="M141.83,542.45v-136.49h33.79v107.85h61.28v28.63h-95.06Z"/><path class="cls-2" d="M249.11,542.45v-136.49h33.79v136.49h-33.79Z"/><path class="cls-2" d="M360.39,545.51c-19.35,0-34.87-6.36-46.58-19.09-12.22-13.36-18.33-30.6-18.33-51.73s6.74-39.77,20.23-53.26c11.84-12.09,27.42-18.13,46.77-18.13,17.18,0,30.99,4.23,41.42,12.69,10.43,8.46,16.8,20.01,19.09,34.65h-32.83c-1.27-5.73-4.23-10.4-8.88-14.03-4.65-3.63-10.53-5.44-17.66-5.44-10.95,0-19.31,4.01-25.1,12.03-5.79,8.02-8.68,18.52-8.68,31.5s3.12,23.16,9.35,31.31c6.23,8.15,14.57,12.22,25.01,12.22,8.4,0,15.24-2.35,20.52-7.06,5.28-4.71,8.3-10.31,9.07-16.8v-.38h-25.58v-24.82h56.88v73.3h-23.67l-1.91-16.42h-.38c-8.4,12.98-21.32,19.47-38.75,19.47Z"/><path class="cls-2" d="M440.76,542.45v-136.49h33.98l40.47,68.53,9.35,17.37h.38c-.26-10.94-.38-18.01-.38-21.19v-64.71h33.02v136.49h-33.98l-40.09-67.57-9.74-18.33h-.38c.25,11.71.38,19.15.38,22.33v63.57h-33.02Z"/><path class="cls-2" d="M628.59,545.13c-18.33,0-32.42-4.52-42.28-13.55-9.86-9.03-15.18-20.81-15.94-35.31h16.8c2.29,23.42,16.35,35.12,42.19,35.12,9.8,0,17.66-2.2,23.57-6.59,5.92-4.39,8.88-10.72,8.88-18.99,0-3.69-.7-6.93-2.1-9.74-1.4-2.8-3.09-5.09-5.06-6.87-1.97-1.78-4.93-3.44-8.88-4.96-3.95-1.53-7.61-2.74-10.98-3.63-3.37-.89-7.99-1.97-13.84-3.25-7-1.53-12.79-3.08-17.37-4.68-4.58-1.59-9.16-3.79-13.74-6.59-4.58-2.8-7.99-6.4-10.21-10.79-2.23-4.39-3.34-9.7-3.34-15.94,0-11.2,4.23-20.01,12.69-26.44,8.46-6.42,19.69-9.64,33.69-9.64,30.67,0,47.91,14.19,51.73,42.57h-16.23c-1.27-9.67-4.9-16.96-10.88-21.86-5.98-4.9-14.06-7.35-24.24-7.35-9.42,0-16.89,1.91-22.43,5.73-5.54,3.82-8.3,9.23-8.3,16.23,0,3.05.6,5.76,1.81,8.11,1.21,2.36,2.8,4.33,4.77,5.92,1.97,1.59,4.58,3.02,7.83,4.29,3.25,1.27,6.46,2.32,9.64,3.15,3.18.83,7.06,1.69,11.64,2.58,6.36,1.27,11.58,2.45,15.65,3.53,4.07,1.08,8.59,2.7,13.55,4.87,4.96,2.17,8.81,4.65,11.55,7.45,2.74,2.8,5.09,6.46,7.06,10.98,1.97,4.52,2.96,9.77,2.96,15.75,0,12.47-4.61,22.24-13.84,29.3-9.23,7.06-21.35,10.59-36.36,10.59Z"/><path class="cls-2" d="M807.93,525.27c-12.15,13.36-28.35,20.04-48.58,20.04s-36.43-6.68-48.58-20.04c-12.15-13.36-18.23-30.41-18.23-51.16s6.08-37.8,18.23-51.16c12.15-13.36,28.35-20.04,48.58-20.04s36.43,6.68,48.58,20.04c12.15,13.36,18.23,30.42,18.23,51.16s-6.08,37.8-18.23,51.16ZM723.08,514.58c8.65,10.44,20.74,15.65,36.27,15.65s27.61-5.22,36.27-15.65c8.65-10.43,12.98-23.92,12.98-40.47s-4.33-30.06-12.98-40.56c-8.66-10.5-20.74-15.75-36.27-15.75s-27.62,5.25-36.27,15.75c-8.66,10.5-12.98,24.02-12.98,40.56s4.32,30.04,12.98,40.47Z"/><path class="cls-2" d="M845.82,542.45v-136.49h17.18v120.64h71.58v15.84h-88.76Z"/><path class="cls-2" d="M997.01,544.55c-15.91,0-28.6-3.75-38.08-11.26-9.48-7.51-14.22-19.15-14.22-34.93v-92.39h17.18v90.67c0,22.14,11.9,33.22,35.7,33.22s34.55-11.07,34.55-33.22v-90.67h17.18v92.39c0,15.65-4.81,27.27-14.41,34.84-9.61,7.57-22.24,11.36-37.89,11.36Z"/><path class="cls-2" d="M1063.24,421.05v-15.08h108.04v15.08h-45.43v121.41h-17.18v-121.41h-45.43Z"/><path class="cls-2" d="M1187.89,542.45v-136.49h17.18v136.49h-17.18Z"/><path class="cls-2" d="M1340.51,525.27c-12.15,13.36-28.35,20.04-48.58,20.04s-36.43-6.68-48.58-20.04c-12.15-13.36-18.23-30.41-18.23-51.16s6.08-37.8,18.23-51.16c12.15-13.36,28.35-20.04,48.58-20.04s36.43,6.68,48.58,20.04c12.15,13.36,18.23,30.42,18.23,51.16s-6.08,37.8-18.23,51.16ZM1255.66,514.58c8.65,10.44,20.74,15.65,36.27,15.65s27.61-5.22,36.27-15.65c8.65-10.43,12.98-23.92,12.98-40.47s-4.33-30.06-12.98-40.56c-8.66-10.5-20.74-15.75-36.27-15.75s-27.62,5.25-36.27,15.75c-8.66,10.5-12.98,24.02-12.98,40.56s4.32,30.04,12.98,40.47Z"/><path class="cls-2" d="M1378.4,542.45v-136.49h18.14l62.23,94.87,9.93,17.56h.38v-112.43h16.03v136.49h-17.56l-62.61-95.06-10.12-16.99h-.38v112.05h-16.04Z"/><path class="cls-2" d="M1559.55,545.13c-18.33,0-32.42-4.52-42.28-13.55-9.86-9.03-15.18-20.81-15.94-35.31h16.8c2.29,23.42,16.35,35.12,42.19,35.12,9.8,0,17.66-2.2,23.57-6.59,5.92-4.39,8.88-10.72,8.88-18.99,0-3.69-.7-6.93-2.1-9.74-1.4-2.8-3.09-5.09-5.06-6.87-1.97-1.78-4.93-3.44-8.88-4.96-3.95-1.53-7.61-2.74-10.98-3.63-3.37-.89-7.99-1.97-13.84-3.25-7-1.53-12.79-3.08-17.37-4.68-4.58-1.59-9.16-3.79-13.74-6.59-4.58-2.8-7.99-6.4-10.21-10.79-2.23-4.39-3.34-9.7-3.34-15.94,0-11.2,4.23-20.01,12.69-26.44,8.46-6.42,19.69-9.64,33.69-9.64,30.67,0,47.91,14.19,51.73,42.57h-16.23c-1.27-9.67-4.9-16.96-10.88-21.86-5.98-4.9-14.06-7.35-24.24-7.35-9.42,0-16.89,1.91-22.43,5.73-5.54,3.82-8.3,9.23-8.3,16.23,0,3.05.6,5.76,1.81,8.11,1.21,2.36,2.8,4.33,4.77,5.92,1.97,1.59,4.58,3.02,7.83,4.29,3.25,1.27,6.46,2.32,9.64,3.15,3.18.83,7.06,1.69,11.64,2.58,6.36,1.27,11.58,2.45,15.65,3.53,4.07,1.08,8.59,2.7,13.55,4.87,4.96,2.17,8.81,4.65,11.55,7.45,2.74,2.8,5.09,6.46,7.06,10.98,1.97,4.52,2.96,9.77,2.96,15.75,0,12.47-4.61,22.24-13.84,29.3-9.23,7.06-21.35,10.59-36.36,10.59Z"/><path class="cls-1" d="M719.05,211.2l29.69,51.56c-1.99,16.55-11.91,31.3-27.63,38.99-22.99,11.26-50.85,3.14-64.26-18.48-13.35-21.55-8.41-50,11.53-65.55,14.92-11.63,33.96-13.7,50.68-6.52Z"/><path class="cls-1" d="M820.97,265.02c-6.16,17.93-18.18,33.03-34.59,42.6l-10.2-17.27-77.49-131.99c17.84-10.68,38.68-13.21,58.77-8.51,10.17,2.38,19.32,6.54,27.61,12.1h0l40.41,71.2c.53,10.69-.89,21.35-4.51,31.88Z"/><polygon class="cls-1" points="967.25 306.35 879.22 306.47 746.05 76.54 790.37 0 967.25 306.35"/></g></svg>