<?xml version="1.0" encoding="UTF-8"?><svg id="Layer_2" xmlns="http://www.w3.org/2000/svg" viewBox="0 0 796.86 771.12"><defs><style>.cls-1{fill:#fff;}</style></defs><g id="Layer_1-2"><path class="cls-1" d="M174.68,529.44l74.42,129.24c-4.98,41.48-29.86,78.46-69.26,97.75-57.63,28.21-127.48,7.88-161.09-46.34-33.47-54.01-21.07-125.34,28.9-164.31,37.39-29.15,85.12-34.34,127.04-16.34Z"/><path class="cls-1" d="M430.17,664.34c-15.43,44.94-45.56,82.81-86.72,106.78l-25.57-43.3L123.62,396.93c44.71-26.78,96.96-33.12,147.33-21.33,25.48,5.96,48.44,16.39,69.21,30.32h.01l101.3,178.49c1.33,26.81-2.23,53.51-11.3,79.92Z"/><polygon class="cls-1" points="796.86 767.96 576.19 768.26 242.35 191.87 353.46 0 796.86 767.96"/></g></svg>