<?xml version="1.0" encoding="UTF-8"?><svg id="Layer_2" xmlns="http://www.w3.org/2000/svg" viewBox="0 0 1600.65 542.42"><defs><style>.cls-1{fill:#3e51a3;}.cls-2{fill:#434344;}</style></defs><g id="Layer_1-2"><path class="cls-2" d="M0,539.38l48.78-135.71h34.55l48.97,135.71h-35.3l-7.97-24.49h-47.45l-7.78,24.49H0ZM49.35,490.79h31.89l-10.25-32.84-5.31-19.17h-.38c-2.15,8.1-3.99,14.49-5.5,19.17l-10.44,32.84Z"/><path class="cls-2" d="M141.03,539.38v-135.71h33.6v107.24h60.93v28.47h-94.53Z"/><path class="cls-2" d="M247.7,539.38v-135.71h33.6v135.71h-33.6Z"/><path class="cls-2" d="M358.35,542.42c-19.24,0-34.67-6.33-46.31-18.98-12.15-13.29-18.22-30.43-18.22-51.44s6.71-39.54,20.12-52.96c11.77-12.02,27.27-18.03,46.5-18.03,17.08,0,30.81,4.21,41.19,12.62,10.37,8.42,16.7,19.9,18.98,34.45h-32.65c-1.27-5.69-4.21-10.34-8.83-13.95-4.62-3.61-10.47-5.41-17.56-5.41-10.88,0-19.2,3.99-24.96,11.96-5.76,7.97-8.64,18.41-8.64,31.32s3.1,23.03,9.3,31.13c6.2,8.1,14.49,12.15,24.86,12.15,8.35,0,15.15-2.34,20.4-7.02,5.25-4.68,8.26-10.25,9.02-16.7v-.38h-25.43v-24.67h56.56v72.89h-23.54l-1.9-16.32h-.38c-8.35,12.91-21.2,19.36-38.53,19.36Z"/><path class="cls-2" d="M438.26,539.38v-135.71h33.79l40.24,68.14,9.3,17.27h.38c-.26-10.88-.38-17.9-.38-21.07v-64.35h32.84v135.71h-33.79l-39.86-67.19-9.68-18.22h-.38c.25,11.64.38,19.05.38,22.21v63.21h-32.84Z"/><path class="cls-2" d="M625.03,542.04c-18.22,0-32.24-4.49-42.04-13.48-9.81-8.98-15.09-20.69-15.85-35.11h16.7c2.28,23.28,16.26,34.92,41.95,34.92,9.74,0,17.56-2.18,23.44-6.55,5.88-4.37,8.83-10.66,8.83-18.89,0-3.67-.7-6.9-2.09-9.68-1.39-2.78-3.07-5.06-5.03-6.83-1.96-1.77-4.91-3.42-8.83-4.94-3.92-1.52-7.56-2.72-10.91-3.61-3.35-.88-7.94-1.96-13.76-3.23-6.96-1.52-12.72-3.07-17.27-4.65-4.56-1.58-9.11-3.76-13.67-6.55-4.55-2.78-7.94-6.36-10.15-10.72-2.22-4.37-3.32-9.65-3.32-15.85,0-11.13,4.21-19.9,12.62-26.29,8.41-6.39,19.58-9.59,33.5-9.59,30.49,0,47.64,14.11,51.44,42.33h-16.13c-1.27-9.61-4.87-16.86-10.82-21.73-5.95-4.87-13.98-7.31-24.11-7.31-9.37,0-16.8,1.9-22.3,5.69-5.5,3.8-8.26,9.18-8.26,16.13,0,3.04.6,5.73,1.8,8.07,1.2,2.34,2.78,4.3,4.74,5.88,1.96,1.58,4.56,3.01,7.78,4.27,3.23,1.27,6.42,2.31,9.59,3.13,3.16.83,7.02,1.68,11.58,2.56,6.33,1.27,11.51,2.44,15.56,3.51,4.05,1.08,8.54,2.69,13.48,4.84,4.93,2.15,8.76,4.62,11.48,7.4,2.72,2.78,5.06,6.42,7.02,10.91,1.96,4.49,2.94,9.71,2.94,15.66,0,12.4-4.59,22.11-13.76,29.14-9.18,7.02-21.23,10.53-36.16,10.53Z"/><path class="cls-2" d="M803.36,522.3c-12.09,13.29-28.19,19.93-48.31,19.93s-36.22-6.64-48.31-19.93c-12.09-13.29-18.13-30.24-18.13-50.87s6.04-37.58,18.13-50.87c12.08-13.29,28.19-19.93,48.31-19.93s36.22,6.64,48.31,19.93c12.08,13.29,18.13,30.24,18.13,50.87s-6.04,37.58-18.13,50.87ZM718.99,511.67c8.6,10.38,20.62,15.56,36.06,15.56s27.46-5.19,36.06-15.56c8.6-10.37,12.91-23.79,12.91-40.24s-4.3-29.89-12.91-40.33c-8.61-10.44-20.63-15.66-36.06-15.66s-27.46,5.22-36.06,15.66c-8.61,10.44-12.91,23.89-12.91,40.33s4.3,29.87,12.91,40.24Z"/><path class="cls-2" d="M841.04,539.38v-135.71h17.08v119.96h71.18v15.75h-88.26Z"/><path class="cls-2" d="M991.37,541.47c-15.82,0-28.44-3.73-37.87-11.2-9.43-7.47-14.14-19.04-14.14-34.74v-91.87h17.08v90.16c0,22.02,11.83,33.03,35.49,33.03s34.36-11.01,34.36-33.03v-90.16h17.08v91.87c0,15.56-4.78,27.11-14.33,34.64-9.56,7.53-22.11,11.29-37.68,11.29Z"/><path class="cls-2" d="M1057.23,418.67v-14.99h107.43v14.99h-45.17v120.72h-17.08v-120.72h-45.17Z"/><path class="cls-2" d="M1181.17,539.38v-135.71h17.08v135.71h-17.08Z"/><path class="cls-2" d="M1332.92,522.3c-12.09,13.29-28.19,19.93-48.31,19.93s-36.22-6.64-48.31-19.93c-12.09-13.29-18.13-30.24-18.13-50.87s6.04-37.58,18.13-50.87c12.08-13.29,28.19-19.93,48.31-19.93s36.22,6.64,48.31,19.93c12.08,13.29,18.13,30.24,18.13,50.87s-6.04,37.58-18.13,50.87ZM1248.55,511.67c8.6,10.38,20.62,15.56,36.06,15.56s27.46-5.19,36.06-15.56c8.6-10.37,12.91-23.79,12.91-40.24s-4.3-29.89-12.91-40.33c-8.61-10.44-20.63-15.66-36.06-15.66s-27.46,5.22-36.06,15.66c-8.61,10.44-12.91,23.89-12.91,40.33s4.3,29.87,12.91,40.24Z"/><path class="cls-2" d="M1370.6,539.38v-135.71h18.03l61.88,94.34,9.87,17.46h.38v-111.8h15.94v135.71h-17.46l-62.26-94.53-10.06-16.89h-.38v111.42h-15.94Z"/><path class="cls-2" d="M1550.73,542.04c-18.22,0-32.24-4.49-42.04-13.48-9.81-8.98-15.09-20.69-15.85-35.11h16.7c2.28,23.28,16.26,34.92,41.95,34.92,9.74,0,17.56-2.18,23.44-6.55,5.88-4.37,8.83-10.66,8.83-18.89,0-3.67-.7-6.9-2.09-9.68-1.39-2.78-3.07-5.06-5.03-6.83-1.96-1.77-4.91-3.42-8.83-4.94-3.92-1.52-7.56-2.72-10.91-3.61-3.35-.88-7.94-1.96-13.76-3.23-6.96-1.52-12.72-3.07-17.27-4.65-4.56-1.58-9.11-3.76-13.67-6.55-4.55-2.78-7.94-6.36-10.15-10.72-2.22-4.37-3.32-9.65-3.32-15.85,0-11.13,4.21-19.9,12.62-26.29,8.41-6.39,19.58-9.59,33.5-9.59,30.49,0,47.64,14.11,51.44,42.33h-16.13c-1.27-9.61-4.87-16.86-10.82-21.73-5.95-4.87-13.98-7.31-24.11-7.31-9.37,0-16.8,1.9-22.3,5.69-5.5,3.8-8.26,9.18-8.26,16.13,0,3.04.6,5.73,1.8,8.07,1.2,2.34,2.78,4.3,4.74,5.88,1.96,1.58,4.56,3.01,7.78,4.27,3.23,1.27,6.42,2.31,9.59,3.13,3.16.83,7.02,1.68,11.58,2.56,6.33,1.27,11.51,2.44,15.56,3.51,4.05,1.08,8.54,2.69,13.48,4.84,4.93,2.15,8.76,4.62,11.48,7.4,2.72,2.78,5.06,6.42,7.02,10.91,1.96,4.49,2.94,9.71,2.94,15.66,0,12.4-4.59,22.11-13.76,29.14-9.18,7.02-21.23,10.53-36.16,10.53Z"/><path class="cls-1" d="M714.99,210.01l29.52,51.26c-1.98,16.45-11.85,31.12-27.47,38.77-22.86,11.19-50.56,3.13-63.9-18.38-13.28-21.42-8.36-49.72,11.46-65.18,14.83-11.56,33.77-13.62,50.39-6.48Z"/><path class="cls-1" d="M816.33,263.52c-6.12,17.83-18.07,32.85-34.4,42.36l-10.14-17.18-77.06-131.25c17.73-10.62,38.46-13.14,58.44-8.46,10.11,2.37,19.22,6.5,27.45,12.03h0l40.18,70.8c.53,10.63-.89,21.23-4.48,31.7Z"/><polygon class="cls-1" points="961.78 304.62 874.25 304.74 741.83 76.11 785.9 0 961.78 304.62"/></g></svg>